<svg width="24" height="24" viewBox="0 0 24 24" fill="none" xmlns="http://www.w3.org/2000/svg">
<path d="M12 18C12 21.3137 14.6863 24 18 24C21.3137 24 24 21.3137 24 18C24 14.6863 21.3137 12 18 12H12V18Z" fill="#FFD11A"/>
<path d="M12 6C12 2.68629 9.31371 0 6 0C2.68629 0 0 2.68629 0 6C0 9.31371 2.68629 12 6 12H12V6Z" fill="#FFD11A"/>
<path fill-rule="evenodd" clip-rule="evenodd" d="M18 0C14.6863 0 12 2.68629 12 6V12H18C21.3137 12 24 9.31371 24 6C24 2.68629 21.3137 0 18 0ZM21 6C21 7.65685 19.6569 9 18 9C16.3431 9 15 7.65685 15 6C15 4.34315 16.3431 3 18 3C19.6569 3 21 4.34315 21 6Z" fill="#404040"/>
<path fill-rule="evenodd" clip-rule="evenodd" d="M6 24C9.31371 24 12 21.3137 12 18V12H6C2.68629 12 0 14.6863 0 18C0 21.3137 2.68629 24 6 24ZM9 18C9 19.6569 7.65685 21 6 21C4.34315 21 3 19.6569 3 18C3 16.3431 4.34315 15 6 15C7.65685 15 9 16.3431 9 18Z" fill="#404040"/>
</svg>
